<?xml version="1.0"?>
<svg xmlns="http://www.w3.org/2000/svg" xmlns:xlink="http://www.w3.org/1999/xlink" xmlns:svgjs="http://svgjs.com/svgjs" version="1.1" width="512" height="512" x="0" y="0" viewBox="0 0 301.219 301.219" style="enable-background:new 0 0 512 512" xml:space="preserve" class=""><g transform="matrix(-6.123233995736808e-17,-0.999999999999993,-1.0000000000000069,6.123233995736723e-17,301.21886444091894,301.21886444091695)">
<g xmlns="http://www.w3.org/2000/svg">
	<path d="M159.365,23.736v-10c0-5.523-4.477-10-10-10H10c-5.523,0-10,4.477-10,10v10c0,5.523,4.477,10,10,10h139.365   C154.888,33.736,159.365,29.259,159.365,23.736z" fill="#2bc48a" data-original="#000000" style="" class=""/>
	<path d="M130.586,66.736H10c-5.523,0-10,4.477-10,10v10c0,5.523,4.477,10,10,10h120.586c5.523,0,10-4.477,10-10v-10   C140.586,71.213,136.109,66.736,130.586,66.736z" fill="#2bc48a" data-original="#000000" style="" class=""/>
	<path d="M111.805,129.736H10c-5.523,0-10,4.477-10,10v10c0,5.523,4.477,10,10,10h101.805c5.523,0,10-4.477,10-10v-10   C121.805,134.213,117.328,129.736,111.805,129.736z" fill="#2bc48a" data-original="#000000" style="" class=""/>
	<path d="M93.025,199.736H10c-5.523,0-10,4.477-10,10v10c0,5.523,4.477,10,10,10h83.025c5.522,0,10-4.477,10-10v-10   C103.025,204.213,98.548,199.736,93.025,199.736z" fill="#2bc48a" data-original="#000000" style="" class=""/>
	<path d="M74.244,262.736H10c-5.523,0-10,4.477-10,10v10c0,5.523,4.477,10,10,10h64.244c5.522,0,10-4.477,10-10v-10   C84.244,267.213,79.767,262.736,74.244,262.736z" fill="#2bc48a" data-original="#000000" style="" class=""/>
	<path d="M298.29,216.877l-7.071-7.071c-1.875-1.875-4.419-2.929-7.071-2.929c-2.652,0-5.196,1.054-7.072,2.929l-34.393,34.393   V18.736c0-5.523-4.477-10-10-10h-10c-5.523,0-10,4.477-10,10v225.462l-34.393-34.393c-1.876-1.875-4.419-2.929-7.071-2.929   c-2.652,0-5.196,1.054-7.071,2.929l-7.072,7.071c-3.904,3.905-3.904,10.237,0,14.142l63.536,63.536   c1.953,1.953,4.512,2.929,7.071,2.929c2.559,0,5.119-0.976,7.071-2.929l63.536-63.536   C302.195,227.113,302.195,220.781,298.29,216.877z" fill="#2bc48a" data-original="#000000" style="" class=""/>
</g>
<g xmlns="http://www.w3.org/2000/svg">
</g>
<g xmlns="http://www.w3.org/2000/svg">
</g>
<g xmlns="http://www.w3.org/2000/svg">
</g>
<g xmlns="http://www.w3.org/2000/svg">
</g>
<g xmlns="http://www.w3.org/2000/svg">
</g>
<g xmlns="http://www.w3.org/2000/svg">
</g>
<g xmlns="http://www.w3.org/2000/svg">
</g>
<g xmlns="http://www.w3.org/2000/svg">
</g>
<g xmlns="http://www.w3.org/2000/svg">
</g>
<g xmlns="http://www.w3.org/2000/svg">
</g>
<g xmlns="http://www.w3.org/2000/svg">
</g>
<g xmlns="http://www.w3.org/2000/svg">
</g>
<g xmlns="http://www.w3.org/2000/svg">
</g>
<g xmlns="http://www.w3.org/2000/svg">
</g>
<g xmlns="http://www.w3.org/2000/svg">
</g>
</g></svg>
